<svg height="512pt" viewBox="0 -22 512 512" width="512pt" xmlns="http://www.w3.org/2000/svg"><path d="m0 0v467.554688h512v-467.554688zm0 0" fill="#cdf8f3"/><path d="m254 0h258v467.554688h-258zm0 0" fill="#23d7de"/><g fill="#60a7e6"><path d="m160.929688 293.78125 38.179687-38.183594-21.210937-21.210937-59.394532 59.394531 59.394532 59.394531 21.210937-21.214843zm0 0"/><path d="m312.890625 255.597656 38.179687 38.183594-38.179687 38.179688 21.210937 21.214843 59.394532-59.394531-59.394532-59.394531zm0 0"/><path d="m196.480469 394.933594 80.984375-212.992188 28.042968 10.664063-80.988281 212.988281zm0 0"/></g><path d="m312.890625 255.597656 38.179687 38.183594-38.179687 38.179688 21.210937 21.214843 59.394532-59.394531-59.394532-59.394531zm0 0" fill="#4f77de"/><path d="m254 328.097656 51.519531-135.480468-28.039062-10.664063-23.480469 61.742187zm0 0" fill="#4f77de"/><path d="m0 0v117.441406h512v-117.441406zm0 0" fill="#545ac3"/><path d="m52.34375 43.722656h30.003906v30h-30.003906zm0 0" fill="#e8398b"/><path d="m102.347656 43.722656h30.003906v30h-30.003906zm0 0" fill="#fd982c"/><path d="m152.351562 43.722656h30v30h-30zm0 0" fill="#23d7de"/><path d="m254 0h258v117.441406h-258zm0 0" fill="#404aa2"/></svg>