<?xml version="1.0" encoding="iso-8859-1"?>
<!-- Generator: Adobe Illustrator 22.1.0, SVG Export Plug-In . SVG Version: 6.00 Build 0)  -->
<svg xmlns="http://www.w3.org/2000/svg" xmlns:xlink="http://www.w3.org/1999/xlink" version="1.1" id="Layer_1_1_" x="0px" y="0px" viewBox="0 0 64 64" style="enable-background:new 0 0 64 64;" xml:space="preserve" width="512" height="512">
<g>
	<rect x="9" y="17" style="fill:#F0BC5E;" width="6" height="6"/>
	<rect x="9" y="33" style="fill:#F0BC5E;" width="6" height="6"/>
	<rect x="9" y="49" style="fill:#F0BC5E;" width="6" height="6"/>
	<path d="M41,60c0,0.552-0.448,1-1,1H4c-0.552,0-1-0.448-1-1V12c0-0.552,0.448-1,1-1h21.716V9H4c-1.654,0-3,1.346-3,3v48   c0,1.654,1.346,3,3,3h36c1.654,0,3-1.346,3-3V42h-2V60z"/>
	<path d="M5,16v8c0,1.654,1.346,3,3,3h14v-2H8c-0.552,0-1-0.448-1-1v-8c0-0.552,0.448-1,1-1h19.032v-2H8C6.346,13,5,14.346,5,16z"/>
	<rect x="9" y="17" width="2" height="2"/>
	<rect x="9" y="21" width="2" height="2"/>
	<rect x="13" y="17" width="2" height="2"/>
	<rect x="13" y="21" width="2" height="2"/>
	<path d="M7,40v-8c0-0.552,0.448-1,1-1h19.032v-2H8c-1.654,0-3,1.346-3,3v8c0,1.654,1.346,3,3,3h30.086v-2H8C7.448,41,7,40.552,7,40   z"/>
	<rect x="9" y="33" width="2" height="2"/>
	<rect x="9" y="37" width="2" height="2"/>
	<rect x="13" y="33" width="2" height="2"/>
	<rect x="13" y="37" width="2" height="2"/>
	<rect x="21" y="33" width="2" height="6"/>
	<path d="M8,45c-1.654,0-3,1.346-3,3v8c0,1.654,1.346,3,3,3h28c1.654,0,3-1.346,3-3v-8c0-1.654-1.346-3-3-3H8z M37,48v8   c0,0.552-0.448,1-1,1H8c-0.552,0-1-0.448-1-1v-8c0-0.552,0.448-1,1-1h28C36.552,47,37,47.448,37,48z"/>
	<rect x="9" y="49" width="2" height="2"/>
	<rect x="9" y="53" width="2" height="2"/>
	<rect x="13" y="49" width="2" height="2"/>
	<rect x="13" y="53" width="2" height="2"/>
	<rect x="21" y="49" width="2" height="6"/>
	<rect x="25" y="49" width="2" height="6"/>
	<rect x="29" y="49" width="2" height="6"/>
	<rect x="33" y="49" width="2" height="6"/>
	<path style="fill:#F0BC5E;" d="M46.79,43h-9.58l-0.936-3.938c-0.791-0.264-1.559-0.58-2.294-0.945l-3.442,2.12l-6.774-6.774   l2.12-3.442c-0.365-0.735-0.682-1.503-0.945-2.294L21,26.79v-9.58l3.938-0.936c0.264-0.791,0.58-1.559,0.945-2.294l-2.12-3.442   l6.774-6.774l3.442,2.12c0.735-0.365,1.503-0.682,2.294-0.945L37.21,1h9.58l0.936,3.938c0.791,0.264,1.559,0.58,2.294,0.945   l3.442-2.12l6.774,6.774l-2.12,3.442c0.365,0.735,0.682,1.503,0.945,2.294L63,17.21v9.58l-3.938,0.936   c-0.264,0.791-0.58,1.559-0.945,2.294l2.12,3.442l-6.774,6.774l-3.442-2.12c-0.735,0.365-1.503,0.682-2.294,0.945L46.79,43z"/>
	<path d="M42,8c-7.72,0-14,6.28-14,14s6.28,14,14,14s14-6.28,14-14S49.72,8,42,8z M53.949,23c-0.118,1.418-0.485,2.764-1.055,4   h-7.037c-0.364-1.399-1.459-2.495-2.858-2.858V16h-2v8.142c-1.399,0.364-2.495,1.459-2.858,2.858h-7.037   c-0.57-1.236-0.937-2.582-1.055-4H32v-2h-1.949c0.213-2.558,1.226-4.889,2.795-6.741l1.376,1.376l1.414-1.414l-1.376-1.376   c1.852-1.569,4.183-2.582,6.741-2.795V12h2v-1.949c2.558,0.213,4.889,1.226,6.741,2.795l-1.376,1.376l1.414,1.414l1.376-1.376   c1.569,1.852,2.582,4.183,2.795,6.741H52v2H53.949z M42,26c1.103,0,2,0.897,2,2s-0.897,2-2,2s-2-0.897-2-2S40.897,26,42,26z M42,34   c-4.004,0-7.546-1.978-9.727-5h5.869c0.447,1.721,1.999,3,3.858,3s3.411-1.279,3.858-3h5.869C49.546,32.022,46.004,34,42,34z"/>
</g>
</svg>
