<?xml version="1.0" encoding="iso-8859-1"?>
<!-- Generator: Adobe Illustrator 22.1.0, SVG Export Plug-In . SVG Version: 6.00 Build 0)  -->
<svg xmlns="http://www.w3.org/2000/svg" xmlns:xlink="http://www.w3.org/1999/xlink" version="1.1" id="Layer_1_1_" x="0px" y="0px" viewBox="0 0 64 64" style="enable-background:new 0 0 64 64;" xml:space="preserve" width="512" height="512">
<g>
	<g>
		<rect x="17" y="7" style="fill:#F0BC5E;" width="6" height="15"/>
	</g>
	<g>
		<rect x="1" y="15" style="fill:#F0BC5E;" width="6" height="7"/>
	</g>
	<g>
		<rect x="9" y="11" style="fill:#F0BC5E;" width="6" height="11"/>
	</g>
	<g>
		<polygon points="9,23 23,23 23,21 1,21 1,23 7,23 7,47 14,47 14,45 9,45   "/>
		<path d="M29,34c1.654,0,3-1.346,3-3c0-0.356-0.073-0.693-0.187-1.009l6.641-5.433C38.907,24.833,39.432,25,40,25    c1.654,0,3-1.346,3-3s-1.346-3-3-3s-3,1.346-3,3c0,0.356,0.073,0.692,0.187,1.009l-6.641,5.433C30.093,28.167,29.568,28,29,28    c-0.958,0-1.804,0.46-2.353,1.162l-3.653-1.218C22.964,26.316,21.635,25,20,25c-1.654,0-3,1.346-3,3    c0,0.614,0.187,1.185,0.505,1.661l-2.617,3.489C14.606,33.061,14.311,33,14,33c-1.654,0-3,1.346-3,3s1.346,3,3,3s3-1.346,3-3    c0-0.614-0.187-1.185-0.505-1.661l2.617-3.489C19.395,30.939,19.689,31,20,31c0.958,0,1.804-0.46,2.353-1.162l3.653,1.218    C26.036,32.684,27.365,34,29,34z M40,21c0.551,0,1,0.449,1,1s-0.449,1-1,1s-1-0.449-1-1S39.449,21,40,21z M29,30    c0.551,0,1,0.449,1,1s-0.449,1-1,1s-1-0.449-1-1S28.449,30,29,30z M14,37c-0.551,0-1-0.449-1-1s0.449-1,1-1s1,0.449,1,1    S14.551,37,14,37z M20,29c-0.551,0-1-0.449-1-1s0.449-1,1-1s1,0.449,1,1S20.551,29,20,29z"/>
		<path d="M55,23h-8V9.586L38.414,1H7v8h2V3h28v8h8v20h-8c-1.654,0-3,1.346-3,3v3h-2c-1.654,0-3,1.346-3,3v1h2v-1    c0-0.551,0.449-1,1-1h6c0.551,0,1,0.449,1,1v1h2v-1c0-1.654-1.346-3-3-3h-2v-3c0-0.551,0.449-1,1-1h8v7h2v-7h8    c1.654,0,3-1.346,3-3v-4C58,24.346,56.654,23,55,23z M39,9V4.414L43.586,9H39z M56,30c0,0.551-0.449,1-1,1h-8v-6h8    c0.551,0,1,0.449,1,1V30z"/>
	</g>
	<g>
		<g>
			<path style="fill:#F0BC5E;" d="M60,63H16c-1.654,0-3-1.346-3-3V44c0-1.654,1.346-3,3-3h25.697l2.244-1.496     c0.494-0.33,1.07-0.504,1.664-0.504H60c1.654,0,3,1.346,3,3v18C63,61.654,61.654,63,60,63z"/>
		</g>
	</g>
	<g>
		<path d="M17,59h26V45H17V59z M19,55h4v2h-4V55z M35,53h-4v-2h4V53z M37,51h4v2h-4V51z M35,55v2H25v-2H35z M31,49v-2h4v2H31z     M29,49h-4v-2h4V49z M29,51v2h-4v-2H29z M23,53h-4v-2h4V53z M37,57v-2h4v2H37z M41,49h-4v-2h4V49z M23,47v2h-4v-2H23z"/>
		<path d="M45,45v14h14V45H45z M57,49h-2v-2h2V49z M51,53v-2h2v2H51z M53,55v2h-2v-2H53z M49,53h-2v-2h2V53z M51,49v-2h2v2H51z     M55,51h2v2h-2V51z M49,47v2h-2v-2H49z M47,55h2v2h-2V55z M55,57v-2h2v2H55z"/>
	</g>
</g>
</svg>
