<?xml version="1.0" encoding="iso-8859-1"?>
<!-- Generator: Adobe Illustrator 19.0.0, SVG Export Plug-In . SVG Version: 6.00 Build 0)  -->
<svg version="1.1" id="Capa_1" xmlns="http://www.w3.org/2000/svg" xmlns:xlink="http://www.w3.org/1999/xlink" x="0px" y="0px"
	 viewBox="0 0 512.001 512.001" style="enable-background:new 0 0 512.001 512.001;" xml:space="preserve">
<path style="fill:#B8DBFF;" d="M374.954,475.125l-198.052,17.327c-15.588,1.364-29.331-10.168-30.695-25.756L111.289,67.57
	c-1.364-15.588,10.168-29.331,25.756-30.695l198.052-17.327c15.588-1.364,29.331,10.168,30.695,25.756L400.71,444.43
	C402.074,460.019,390.543,473.761,374.954,475.125z"/>
<path style="opacity:0.05;enable-background:new    ;" d="M174.983,470.505c-3.462,0.303-6.524-2.266-6.827-5.728L133.238,65.65
	c-0.303-3.462,2.267-6.524,5.729-6.826l198.05-17.327c3.462-0.303,6.524,2.266,6.827,5.728l34.919,399.126
	c0.303,3.462-2.267,6.524-5.729,6.827L174.983,470.505z"/>
<g>
	
		<rect x="128.277" y="92.286" transform="matrix(-0.9962 0.0872 -0.0872 -0.9962 533.3736 488.6826)" style="fill:#5B6EA2;" width="255.472" height="327.41"/>
	<path style="fill:#5B6EA2;" d="M212.012,75.13c-3.847,0-7.121-2.942-7.463-6.847c-0.361-4.126,2.691-7.764,6.818-8.125
		l54.581-4.775c4.123-0.359,7.764,2.692,8.125,6.818c0.36,4.126-2.691,7.764-6.818,8.125l-54.58,4.775
		C212.453,75.121,212.231,75.13,212.012,75.13z"/>
</g>
<path style="fill:#FDE27C;" d="M226.802,195.343l13.075-15.583c3.551-4.232,2.999-10.542-1.233-14.093l-27.203-22.826
	c-4.232-3.551-10.542-2.999-14.093,1.233l-18.594,22.16c-13.37,15.934-14.173,38.926-1.947,55.755l0,0
	c23.958,32.975,55.646,59.564,92.279,77.432l0,0c18.696,9.119,41.199,4.336,54.57-11.599l18.594-22.16
	c3.551-4.232,2.999-10.542-1.233-14.093l-27.203-22.826c-4.232-3.551-10.542-2.999-14.093,1.233l-13.075,15.583
	c-4.556,5.43-12.119,7.258-18.651,4.508l0,0c-17.389-7.32-32.165-19.718-42.392-35.572l0,0
	C221.759,208.538,222.246,200.773,226.802,195.343z"/>
<g>
	<path style="fill:#B8DBFF;" d="M84.839,361.381c-1.701,0-3.412-0.575-4.817-1.755c-25.434-21.341-41.035-51.311-43.928-84.386
		c-2.894-33.076,7.266-65.298,28.608-90.732c2.661-3.174,7.393-3.589,10.566-0.924c3.173,2.662,3.587,7.393,0.924,10.566
		c-18.766,22.364-27.7,50.698-25.155,79.783c2.544,29.084,16.262,55.437,38.627,74.203c3.173,2.662,3.587,7.393,0.924,10.566
		C89.105,360.47,86.979,361.381,84.839,361.381z"/>
	<path style="fill:#B8DBFF;" d="M61.951,388.657c-1.701,0-3.412-0.575-4.817-1.755c-32.72-27.455-52.789-66.007-56.512-108.558
		C-3.1,235.794,9.97,194.34,37.425,161.619c2.661-3.173,7.393-3.588,10.566-0.924c3.173,2.662,3.587,7.393,0.924,10.566
		c-24.88,29.65-36.724,67.215-33.351,105.774c3.374,38.559,21.56,73.496,51.211,98.376c3.173,2.662,3.587,7.393,0.924,10.566
		C66.216,387.746,64.091,388.657,61.951,388.657z"/>
	<path style="fill:#B8DBFF;" d="M107.727,334.104c-1.701,0-3.412-0.575-4.817-1.755c-37.464-31.436-42.368-87.49-10.933-124.954
		c2.662-3.173,7.393-3.588,10.566-0.924c3.173,2.662,3.587,7.393,0.924,10.566c-26.12,31.128-22.044,77.702,9.084,103.822
		c3.173,2.662,3.587,7.393,0.924,10.566C111.993,333.193,109.867,334.104,107.727,334.104z"/>
	<path style="fill:#B8DBFF;" d="M441.551,330.173c-1.701,0-3.412-0.575-4.817-1.755c-3.173-2.662-3.587-7.393-0.924-10.566
		c18.766-22.364,27.7-50.698,25.155-79.783c-2.545-29.084-16.263-55.437-38.628-74.203c-3.173-2.662-3.587-7.393-0.924-10.566
		c2.662-3.173,7.393-3.588,10.566-0.924c25.434,21.341,41.034,51.311,43.928,84.386c2.895,33.076-7.266,65.298-28.607,90.732
		C445.816,329.262,443.691,330.173,441.551,330.173z"/>
	<path style="fill:#B8DBFF;" d="M468.827,353.061c-1.701,0-3.412-0.575-4.817-1.755c-3.173-2.662-3.587-7.393-0.924-10.566
		c51.36-61.209,43.348-152.791-17.861-204.15c-3.173-2.662-3.587-7.393-0.924-10.566c2.662-3.173,7.393-3.588,10.566-0.924
		c32.72,27.455,52.789,66.008,56.512,108.559c3.724,42.55-9.348,84.004-36.803,116.724
		C473.093,352.149,470.968,353.061,468.827,353.061z"/>
	<path style="fill:#B8DBFF;" d="M414.273,307.285c-1.701,0-3.412-0.575-4.817-1.755c-3.173-2.662-3.587-7.393-0.924-10.566
		c12.652-15.078,18.676-34.183,16.96-53.792c-1.715-19.609-10.965-37.378-26.044-50.03c-3.173-2.662-3.587-7.393-0.924-10.566
		c2.662-3.173,7.393-3.588,10.566-0.924c37.464,31.436,42.367,87.49,10.932,124.954
		C418.539,306.374,416.414,307.285,414.273,307.285z"/>
</g>
<circle style="fill:#EC7887;" cx="209.152" cy="368.766" r="24.631"/>
<circle style="fill:#86DBD5;" cx="321.717" cy="358.917" r="24.631"/>
<path style="opacity:0.15;enable-background:new    ;" d="M176.903,492.453l185.256-16.207
	C233.62,417.894,198.835,187.393,190.216,32.225l-53.171,4.652c-15.588,1.364-27.12,15.106-25.756,30.694l34.919,399.126
	C147.572,482.285,161.315,493.816,176.903,492.453z"/>
<g>
</g>
<g>
</g>
<g>
</g>
<g>
</g>
<g>
</g>
<g>
</g>
<g>
</g>
<g>
</g>
<g>
</g>
<g>
</g>
<g>
</g>
<g>
</g>
<g>
</g>
<g>
</g>
<g>
</g>
</svg>
