<svg xmlns="http://www.w3.org/2000/svg" height="511pt" version="1.1" viewBox="0 -8 511.99997 511" width="511pt">
<g id="surface1">
<path d="M 256 51.703125 L 401.070312 51.703125 L 401.070312 427.183594 L 256 427.183594 Z M 256 51.703125 " style=" stroke:none;fill-rule:nonzero;fill:rgb(14.117647%,50.980392%,94.901961%);fill-opacity:1;" />
<path d="M 110.929688 51.703125 L 256 51.703125 L 256 427.183594 L 110.929688 427.183594 Z M 110.929688 51.703125 " style=" stroke:none;fill-rule:nonzero;fill:rgb(0%,42.745098%,94.117647%);fill-opacity:1;" />
<path d="M 247.464844 461.316406 L 256 461.316406 L 256 427.183594 L 110.929688 427.183594 L 110.929688 462.28125 C 110.929688 480.601562 125.777344 495.453125 144.097656 495.453125 L 256 495.453125 L 256 461.316406 Z M 247.464844 461.316406 " style=" stroke:none;fill-rule:nonzero;fill:rgb(57.647059%,58.431373%,59.607843%);fill-opacity:1;" />
<path d="M 256 461.316406 L 256 495.453125 L 367.902344 495.453125 C 386.21875 495.453125 401.070312 480.601562 401.070312 462.28125 L 401.070312 427.183594 L 256 427.183594 Z M 256 461.316406 " style=" stroke:none;fill-rule:nonzero;fill:rgb(63.529412%,64.313725%,65.490196%);fill-opacity:1;" />
<path d="M 256 0.5 L 144.097656 0.5 C 125.78125 0.5 110.929688 15.351562 110.929688 33.671875 L 110.929688 51.703125 L 256 51.703125 Z M 256 0.5 " style=" stroke:none;fill-rule:nonzero;fill:rgb(57.647059%,58.431373%,59.607843%);fill-opacity:1;" />
<path d="M 367.902344 0.5 L 256 0.5 L 256 51.703125 L 401.070312 51.703125 L 401.070312 33.671875 C 401.070312 15.351562 386.222656 0.5 367.902344 0.5 Z M 367.902344 0.5 " style=" stroke:none;fill-rule:nonzero;fill:rgb(63.529412%,64.313725%,65.490196%);fill-opacity:1;" />
<path d="M 33.015625 373.863281 C -11.003906 295.722656 -11.003906 200.261719 33.015625 122.121094 L 47.863281 130.519531 C 6.789062 203.460938 6.789062 292.558594 47.863281 365.5 Z M 33.015625 373.863281 " style=" stroke:none;fill-rule:nonzero;fill:rgb(14.117647%,53.333333%,100%);fill-opacity:1;" />
<path d="M 70.820312 335.285156 C 44.671875 280.015625 44.671875 215.9375 70.820312 160.667969 L 86.179688 168.023438 C 62.253906 218.640625 62.253906 277.3125 86.179688 327.929688 Z M 70.820312 335.285156 " style=" stroke:none;fill-rule:nonzero;fill:rgb(14.117647%,53.333333%,100%);fill-opacity:1;" />
<path d="M 478.984375 373.863281 L 464.136719 365.46875 C 505.210938 292.523438 505.210938 203.425781 464.136719 130.484375 L 478.984375 122.089844 C 523.003906 200.230469 523.003906 295.691406 478.984375 373.832031 Z M 478.984375 373.863281 " style=" stroke:none;fill-rule:nonzero;fill:rgb(14.117647%,53.333333%,100%);fill-opacity:1;" />
<path d="M 441.179688 335.285156 L 425.820312 327.925781 C 449.746094 277.3125 449.746094 218.640625 425.820312 168.023438 L 441.179688 160.667969 C 467.328125 215.9375 467.328125 280.015625 441.179688 335.285156 Z M 441.179688 335.285156 " style=" stroke:none;fill-rule:nonzero;fill:rgb(14.117647%,53.333333%,100%);fill-opacity:1;" />
<path d="M 213.332031 452.78125 L 230.398438 452.78125 L 230.398438 469.851562 L 213.332031 469.851562 Z M 213.332031 452.78125 " style=" stroke:none;fill-rule:nonzero;fill:rgb(94.509804%,94.901961%,94.901961%);fill-opacity:1;" />
<path d="M 247.464844 452.78125 L 264.53125 452.78125 L 264.53125 469.851562 L 247.464844 469.851562 Z M 247.464844 452.78125 " style=" stroke:none;fill-rule:nonzero;fill:rgb(94.509804%,94.901961%,94.901961%);fill-opacity:1;" />
<path d="M 281.601562 452.78125 L 298.667969 452.78125 L 298.667969 469.851562 L 281.601562 469.851562 Z M 281.601562 452.78125 " style=" stroke:none;fill-rule:nonzero;fill:rgb(94.509804%,94.901961%,94.901961%);fill-opacity:1;" />
</g>
</svg>