<?xml version="1.0" encoding="iso-8859-1"?>
<!-- Generator: Adobe Illustrator 22.1.0, SVG Export Plug-In . SVG Version: 6.00 Build 0)  -->
<svg xmlns="http://www.w3.org/2000/svg" xmlns:xlink="http://www.w3.org/1999/xlink" version="1.1" id="Layer_1_1_" x="0px" y="0px" viewBox="0 0 64 64" style="enable-background:new 0 0 64 64;" xml:space="preserve" width="512" height="512">
<g>
	<g>
		<rect x="6" y="14" style="fill:#F0BC5E;" width="4" height="2"/>
	</g>
	<g>
		<rect x="26" y="16" style="fill:#F0BC5E;" width="4" height="2"/>
	</g>
	<g>
		<rect x="6" y="30" style="fill:#F0BC5E;" width="4" height="2"/>
	</g>
	<g>
		<rect x="26" y="32" style="fill:#F0BC5E;" width="4" height="2"/>
	</g>
	<g>
		<rect x="6" y="46" style="fill:#F0BC5E;" width="4" height="2"/>
	</g>
	<g>
		<rect x="26" y="48" style="fill:#F0BC5E;" width="4" height="2"/>
	</g>
	<g>
		<g>
			<path style="fill:#F0BC5E;" d="M59,45H37V29h22V45z"/>
		</g>
	</g>
	<g>
		<rect x="5" y="46" width="2" height="2"/>
		<rect x="9" y="46" width="2" height="2"/>
		<rect x="29" y="48" width="2" height="2"/>
		<rect x="25" y="48" width="2" height="2"/>
		<rect x="5" y="30" width="2" height="2"/>
		<rect x="9" y="30" width="2" height="2"/>
		<rect x="29" y="32" width="2" height="2"/>
		<rect x="25" y="32" width="2" height="2"/>
		<rect x="5" y="14" width="2" height="2"/>
		<rect x="9" y="14" width="2" height="2"/>
		<rect x="29" y="16" width="2" height="2"/>
		<rect x="25" y="16" width="2" height="2"/>
		<path d="M60,15H49.764l-4,2H35v-4c0-1.654-1.346-3-3-3H4c-1.654,0-3,1.346-3,3v6c0,1.654,1.346,3,3,3h1v4H4c-1.654,0-3,1.346-3,3    v6c0,1.654,1.346,3,3,3h1v4H4c-1.654,0-3,1.346-3,3v6c0,1.654,1.346,3,3,3h28c1.654,0,3-1.346,3-3v-2h25c1.654,0,3-1.346,3-3V18    C63,16.346,61.654,15,60,15z M3,19v-6c0-0.551,0.448-1,1-1h28c0.552,0,1,0.449,1,1v6c0,0.551-0.448,1-1,1H4    C3.448,20,3,19.551,3,19z M7,22h22v4H7V22z M3,35v-6c0-0.551,0.448-1,1-1h28c0.552,0,1,0.449,1,1v6c0,0.551-0.448,1-1,1H4    C3.448,36,3,35.551,3,35z M7,38h22v4H7V38z M33,51c0,0.551-0.448,1-1,1H4c-0.552,0-1-0.449-1-1v-6c0-0.551,0.448-1,1-1h28    c0.552,0,1,0.449,1,1V51z M60,47H35v-2c0-1.654-1.346-3-3-3h-1v-4h1c1.654,0,3-1.346,3-3v-6c0-1.654-1.346-3-3-3h-1v-4h1    c1.654,0,3-1.346,3-3h11.236l4-2H60c0.552,0,1,0.449,1,1v5H37v2h24v21C61,46.551,60.552,47,60,47z"/>
		<rect x="49" y="19" width="10" height="2"/>
		<rect x="41" y="33" width="14" height="2"/>
		<rect x="41" y="37" width="14" height="2"/>
		<polygon points="45,10 62,10 62,8 43,8 43,9.382 38.236,7 43,4.618 43,6 58,6 58,4 45,4 45,1.382 33.764,7 45,12.618   "/>
		<rect x="60" y="4" width="2" height="2"/>
		<polygon points="51,54 37,54 37,56 53,56 53,54.618 57.764,57 53,59.382 53,58 41,58 41,60 51,60 51,62.618 62.236,57 51,51.382       "/>
		<rect x="37" y="58" width="2" height="2"/>
	</g>
</g>
</svg>
